<mxfile host="Electron" agent="Mozilla/5.0 (Macintosh; Intel Mac OS X 10_15_7) AppleWebKit/537.36 (KHTML, like Gecko) draw.io/28.1.2 Chrome/138.0.7204.243 Electron/37.4.0 Safari/537.36" version="28.1.2">
  <diagram name="Page-1" id="fFfy8TutctiNkHREEcfm">
    <mxGraphModel dx="983" dy="724" grid="1" gridSize="10" guides="1" tooltips="1" connect="1" arrows="1" fold="1" page="1" pageScale="1" pageWidth="827" pageHeight="1169" math="0" shadow="0">
      <root>
        <mxCell id="0" />
        <mxCell id="1" parent="0" />
        <mxCell id="qbdhf5ipK8pvgIjz0etJ-1" value="--- Cluster Zone ---" style="whiteSpace=wrap;strokeWidth=2;" vertex="1" parent="1">
          <mxGeometry x="510" y="427" width="1995" height="677" as="geometry" />
        </mxCell>
        <mxCell id="qbdhf5ipK8pvgIjz0etJ-2" value="Admin / Bastion Hosts" style="whiteSpace=wrap;strokeWidth=2;" vertex="1" parent="1">
          <mxGeometry x="828" y="136" width="218" height="54" as="geometry" />
        </mxCell>
        <mxCell id="qbdhf5ipK8pvgIjz0etJ-3" value="Management Network / Jumpbox VLAN" style="whiteSpace=wrap;strokeWidth=2;" vertex="1" parent="1">
          <mxGeometry x="20" y="287" width="260" height="78" as="geometry" />
        </mxCell>
        <mxCell id="qbdhf5ipK8pvgIjz0etJ-4" value="Rancher Server (HA) — UI/API (TCP 443/6443 mTLS)" style="whiteSpace=wrap;strokeWidth=2;" vertex="1" parent="1">
          <mxGeometry x="195" y="452" width="260" height="102" as="geometry" />
        </mxCell>
        <mxCell id="qbdhf5ipK8pvgIjz0etJ-5" value="Internal Load Balancer (F5/HAProxy) — 80/443, Health Checks" style="whiteSpace=wrap;strokeWidth=2;" vertex="1" parent="1">
          <mxGeometry x="215" y="627" width="260" height="102" as="geometry" />
        </mxCell>
        <mxCell id="qbdhf5ipK8pvgIjz0etJ-6" value="RKE2 Control Plane Node 1&#xa;(kube-apiserver: 6443, etcd: 2379-2380)" style="whiteSpace=wrap;strokeWidth=2;" vertex="1" parent="1">
          <mxGeometry x="884" y="627" width="260" height="102" as="geometry" />
        </mxCell>
        <mxCell id="qbdhf5ipK8pvgIjz0etJ-7" value="RKE2 Control Plane Node 2&#xa;(kube-apiserver: 6443, etcd: 2379-2380)" style="whiteSpace=wrap;strokeWidth=2;" vertex="1" parent="1">
          <mxGeometry x="801" y="802" width="260" height="102" as="geometry" />
        </mxCell>
        <mxCell id="qbdhf5ipK8pvgIjz0etJ-8" value="RKE2 Control Plane Node 3&#xa;(kube-apiserver: 6443, etcd: 2379-2380)" style="whiteSpace=wrap;strokeWidth=2;" vertex="1" parent="1">
          <mxGeometry x="801" y="977" width="260" height="102" as="geometry" />
        </mxCell>
        <mxCell id="qbdhf5ipK8pvgIjz0etJ-9" value="RKE2 Worker Nodes Pool&#xa;(kubelet: 10250, Cilium Agent)" style="whiteSpace=wrap;strokeWidth=2;" vertex="1" parent="1">
          <mxGeometry x="1426" y="452" width="260" height="102" as="geometry" />
        </mxCell>
        <mxCell id="qbdhf5ipK8pvgIjz0etJ-10" value="Cilium CNI (eBPF Data Path, Ports 4240, 4241 TCP)" style="whiteSpace=wrap;strokeWidth=2;" vertex="1" parent="1">
          <mxGeometry x="1725" y="639" width="260" height="78" as="geometry" />
        </mxCell>
        <mxCell id="qbdhf5ipK8pvgIjz0etJ-11" value="Hubble Relay (Ports 4245, 4246 TCP)" style="whiteSpace=wrap;strokeWidth=2;" vertex="1" parent="1">
          <mxGeometry x="1725" y="814" width="260" height="78" as="geometry" />
        </mxCell>
        <mxCell id="qbdhf5ipK8pvgIjz0etJ-12" value="Longhorn CSI Storage&#xa;(Ports 9500-9800 TCP for mgr/replica)" style="whiteSpace=wrap;strokeWidth=2;" vertex="1" parent="1">
          <mxGeometry x="2150" y="627" width="260" height="102" as="geometry" />
        </mxCell>
        <mxCell id="qbdhf5ipK8pvgIjz0etJ-13" value="NGINX Ingress Controller&#xa;(Ports 80, 443 TCP)" style="whiteSpace=wrap;strokeWidth=2;" vertex="1" parent="1">
          <mxGeometry x="1111" y="802" width="260" height="102" as="geometry" />
        </mxCell>
        <mxCell id="qbdhf5ipK8pvgIjz0etJ-14" value="Prometheus (TCP 9090 Scrape Metrics)" style="whiteSpace=wrap;strokeWidth=2;" vertex="1" parent="1">
          <mxGeometry x="2355" y="287" width="260" height="78" as="geometry" />
        </mxCell>
        <mxCell id="qbdhf5ipK8pvgIjz0etJ-15" value="Alertmanager (TCP 9093)" style="whiteSpace=wrap;strokeWidth=2;" vertex="1" parent="1">
          <mxGeometry x="2076" y="20" width="240" height="54" as="geometry" />
        </mxCell>
        <mxCell id="qbdhf5ipK8pvgIjz0etJ-16" value="Grafana (TCP 3000)" style="whiteSpace=wrap;strokeWidth=2;" vertex="1" parent="1">
          <mxGeometry x="2096" y="136" width="199" height="54" as="geometry" />
        </mxCell>
        <mxCell id="qbdhf5ipK8pvgIjz0etJ-17" value="Kube-state-metrics (TCP 8080)" style="whiteSpace=wrap;strokeWidth=2;" vertex="1" parent="1">
          <mxGeometry x="2355" y="124" width="260" height="78" as="geometry" />
        </mxCell>
        <mxCell id="qbdhf5ipK8pvgIjz0etJ-18" value="ELK Stack:&#xa;Elasticsearch (9200), Fluentd/Logstash (5044), Kibana (5601)" style="whiteSpace=wrap;strokeWidth=2;" vertex="1" parent="1">
          <mxGeometry x="2540" y="802" width="260" height="102" as="geometry" />
        </mxCell>
        <mxCell id="qbdhf5ipK8pvgIjz0etJ-19" value="Fluentd/Fluent-bit on Workers" style="whiteSpace=wrap;strokeWidth=2;" vertex="1" parent="1">
          <mxGeometry x="2540" y="639" width="260" height="78" as="geometry" />
        </mxCell>
        <mxCell id="qbdhf5ipK8pvgIjz0etJ-20" value="HashiCorp Vault Cluster (HA) — Ports 8200 (API), 8201/8202 (Replication)" style="whiteSpace=wrap;strokeWidth=2;" vertex="1" parent="1">
          <mxGeometry x="350" y="275" width="260" height="102" as="geometry" />
        </mxCell>
        <mxCell id="qbdhf5ipK8pvgIjz0etJ-21" value="Internal Image Registry (Harbor/Artifactory) Ports 5000, 443" style="whiteSpace=wrap;strokeWidth=2;" vertex="1" parent="1">
          <mxGeometry x="914" y="275" width="260" height="102" as="geometry" />
        </mxCell>
        <mxCell id="qbdhf5ipK8pvgIjz0etJ-22" value="Helm Chart Mirror (Ports 80/443)" style="whiteSpace=wrap;strokeWidth=2;" vertex="1" parent="1">
          <mxGeometry x="1347" y="287" width="260" height="78" as="geometry" />
        </mxCell>
        <mxCell id="qbdhf5ipK8pvgIjz0etJ-23" value="NTP Server (UDP 123)" style="whiteSpace=wrap;strokeWidth=2;" vertex="1" parent="1">
          <mxGeometry x="1657" y="299" width="214" height="54" as="geometry" />
        </mxCell>
        <mxCell id="qbdhf5ipK8pvgIjz0etJ-24" value="CoreDNS / Internal DNS (TCP/UDP 53)" style="whiteSpace=wrap;strokeWidth=2;" vertex="1" parent="1">
          <mxGeometry x="1921" y="287" width="260" height="78" as="geometry" />
        </mxCell>
        <mxCell id="qbdhf5ipK8pvgIjz0etJ-25" value="Jumpbox / SIEM" style="whiteSpace=wrap;strokeWidth=2;" vertex="1" parent="1">
          <mxGeometry x="850" y="20" width="174" height="54" as="geometry" />
        </mxCell>
        <mxCell id="qbdhf5ipK8pvgIjz0etJ-26" value="SSH 22 TCP" style="curved=1;startArrow=none;endArrow=block;exitX=0;exitY=0.69;entryX=0.5;entryY=0;rounded=0;" edge="1" parent="1" source="qbdhf5ipK8pvgIjz0etJ-2" target="qbdhf5ipK8pvgIjz0etJ-3">
          <mxGeometry relative="1" as="geometry">
            <Array as="points">
              <mxPoint x="150" y="239" />
            </Array>
          </mxGeometry>
        </mxCell>
        <mxCell id="qbdhf5ipK8pvgIjz0etJ-27" value="" style="curved=1;startArrow=none;endArrow=block;exitX=0.5;exitY=1;entryX=0.05;entryY=0;rounded=0;" edge="1" parent="1" source="qbdhf5ipK8pvgIjz0etJ-3" target="qbdhf5ipK8pvgIjz0etJ-4">
          <mxGeometry relative="1" as="geometry">
            <Array as="points">
              <mxPoint x="150" y="427" />
            </Array>
          </mxGeometry>
        </mxCell>
        <mxCell id="qbdhf5ipK8pvgIjz0etJ-28" value="HTTPS 443 / API 6443" style="curved=1;startArrow=none;endArrow=block;exitX=0.54;exitY=1;entryX=0.5;entryY=0;rounded=0;" edge="1" parent="1" source="qbdhf5ipK8pvgIjz0etJ-4" target="qbdhf5ipK8pvgIjz0etJ-5">
          <mxGeometry relative="1" as="geometry">
            <Array as="points">
              <mxPoint x="345" y="591" />
            </Array>
          </mxGeometry>
        </mxCell>
        <mxCell id="qbdhf5ipK8pvgIjz0etJ-29" value="Forward TCP 80/443" style="curved=1;startArrow=none;endArrow=block;exitX=1;exitY=0.93;entryX=0;entryY=0.32;rounded=0;" edge="1" parent="1" source="qbdhf5ipK8pvgIjz0etJ-5" target="qbdhf5ipK8pvgIjz0etJ-13">
          <mxGeometry relative="1" as="geometry">
            <Array as="points">
              <mxPoint x="605" y="766" />
            </Array>
          </mxGeometry>
        </mxCell>
        <mxCell id="qbdhf5ipK8pvgIjz0etJ-30" value="K8s API 6443" style="curved=1;startArrow=none;endArrow=block;exitX=1;exitY=0.9;entryX=0;entryY=0.23;rounded=0;" edge="1" parent="1" source="qbdhf5ipK8pvgIjz0etJ-4" target="qbdhf5ipK8pvgIjz0etJ-6">
          <mxGeometry relative="1" as="geometry">
            <Array as="points">
              <mxPoint x="605" y="591" />
            </Array>
          </mxGeometry>
        </mxCell>
        <mxCell id="qbdhf5ipK8pvgIjz0etJ-31" value="K8s API 6443" style="curved=1;startArrow=none;endArrow=block;exitX=1;exitY=0.8;entryX=0;entryY=0.02;rounded=0;" edge="1" parent="1" source="qbdhf5ipK8pvgIjz0etJ-4" target="qbdhf5ipK8pvgIjz0etJ-7">
          <mxGeometry relative="1" as="geometry">
            <Array as="points">
              <mxPoint x="700" y="591" />
              <mxPoint x="700" y="766" />
            </Array>
          </mxGeometry>
        </mxCell>
        <mxCell id="qbdhf5ipK8pvgIjz0etJ-32" value="K8s API 6443" style="curved=1;startArrow=none;endArrow=block;exitX=1;exitY=0.75;entryX=0.13;entryY=0;rounded=0;" edge="1" parent="1" source="qbdhf5ipK8pvgIjz0etJ-4" target="qbdhf5ipK8pvgIjz0etJ-8">
          <mxGeometry relative="1" as="geometry">
            <Array as="points">
              <mxPoint x="766" y="591" />
              <mxPoint x="766" y="941" />
            </Array>
          </mxGeometry>
        </mxCell>
        <mxCell id="qbdhf5ipK8pvgIjz0etJ-33" value="etcd peer 2380 TCP" style="curved=1;startArrow=none;endArrow=none;exitX=0.31;exitY=1;entryX=0.5;entryY=0;rounded=0;" edge="1" parent="1" source="qbdhf5ipK8pvgIjz0etJ-6" target="qbdhf5ipK8pvgIjz0etJ-7">
          <mxGeometry relative="1" as="geometry">
            <Array as="points">
              <mxPoint x="931" y="766" />
            </Array>
          </mxGeometry>
        </mxCell>
        <mxCell id="qbdhf5ipK8pvgIjz0etJ-34" value="etcd peer 2380 TCP" style="curved=1;startArrow=none;endArrow=none;exitX=0.5;exitY=1;entryX=0.5;entryY=0;rounded=0;" edge="1" parent="1" source="qbdhf5ipK8pvgIjz0etJ-7" target="qbdhf5ipK8pvgIjz0etJ-8">
          <mxGeometry relative="1" as="geometry">
            <Array as="points">
              <mxPoint x="931" y="941" />
            </Array>
          </mxGeometry>
        </mxCell>
        <mxCell id="qbdhf5ipK8pvgIjz0etJ-35" value="etcd peer 2380 TCP" style="curved=1;startArrow=none;endArrow=none;exitX=1;exitY=0.3;entryX=1;entryY=0.74;rounded=0;" edge="1" parent="1" source="qbdhf5ipK8pvgIjz0etJ-8" target="qbdhf5ipK8pvgIjz0etJ-6">
          <mxGeometry relative="1" as="geometry">
            <Array as="points">
              <mxPoint x="1478" y="941" />
              <mxPoint x="1478" y="766" />
            </Array>
          </mxGeometry>
        </mxCell>
        <mxCell id="qbdhf5ipK8pvgIjz0etJ-36" value="kubelet API 10250" style="curved=1;startArrow=none;endArrow=block;exitX=0.01;exitY=1;entryX=1;entryY=0.15;rounded=0;" edge="1" parent="1" source="qbdhf5ipK8pvgIjz0etJ-9" target="qbdhf5ipK8pvgIjz0etJ-6">
          <mxGeometry relative="1" as="geometry">
            <Array as="points">
              <mxPoint x="1337" y="591" />
            </Array>
          </mxGeometry>
        </mxCell>
        <mxCell id="qbdhf5ipK8pvgIjz0etJ-37" value="kubelet API 10250" style="curved=1;startArrow=none;endArrow=block;exitX=0.61;exitY=1;entryX=1;entryY=0.33;rounded=0;" edge="1" parent="1" source="qbdhf5ipK8pvgIjz0etJ-9" target="qbdhf5ipK8pvgIjz0etJ-7">
          <mxGeometry relative="1" as="geometry">
            <Array as="points">
              <mxPoint x="1604" y="591" />
              <mxPoint x="1604" y="766" />
            </Array>
          </mxGeometry>
        </mxCell>
        <mxCell id="qbdhf5ipK8pvgIjz0etJ-38" value="kubelet API 10250" style="curved=1;startArrow=none;endArrow=block;exitX=0.8;exitY=1;entryX=1;entryY=0.35;rounded=0;" edge="1" parent="1" source="qbdhf5ipK8pvgIjz0etJ-9" target="qbdhf5ipK8pvgIjz0etJ-8">
          <mxGeometry relative="1" as="geometry">
            <Array as="points">
              <mxPoint x="1690" y="591" />
              <mxPoint x="1690" y="941" />
            </Array>
          </mxGeometry>
        </mxCell>
        <mxCell id="qbdhf5ipK8pvgIjz0etJ-39" value="" style="curved=1;startArrow=none;endArrow=block;exitX=1;exitY=0.87;entryX=0.5;entryY=0;rounded=0;" edge="1" parent="1" source="qbdhf5ipK8pvgIjz0etJ-9" target="qbdhf5ipK8pvgIjz0etJ-10">
          <mxGeometry relative="1" as="geometry">
            <Array as="points">
              <mxPoint x="1855" y="591" />
            </Array>
          </mxGeometry>
        </mxCell>
        <mxCell id="qbdhf5ipK8pvgIjz0etJ-40" value="" style="curved=1;startArrow=none;endArrow=block;exitX=0.5;exitY=1;entryX=0.5;entryY=0;rounded=0;" edge="1" parent="1" source="qbdhf5ipK8pvgIjz0etJ-10" target="qbdhf5ipK8pvgIjz0etJ-11">
          <mxGeometry relative="1" as="geometry">
            <Array as="points" />
          </mxGeometry>
        </mxCell>
        <mxCell id="qbdhf5ipK8pvgIjz0etJ-41" value="" style="curved=1;startArrow=none;endArrow=block;exitX=1;exitY=0.65;entryX=0.5;entryY=0;rounded=0;" edge="1" parent="1" source="qbdhf5ipK8pvgIjz0etJ-9" target="qbdhf5ipK8pvgIjz0etJ-12">
          <mxGeometry relative="1" as="geometry">
            <Array as="points">
              <mxPoint x="2280" y="591" />
            </Array>
          </mxGeometry>
        </mxCell>
        <mxCell id="qbdhf5ipK8pvgIjz0etJ-42" value="" style="curved=1;startArrow=none;endArrow=block;exitX=1;exitY=0.63;entryX=1;entryY=0.41;rounded=0;" edge="1" parent="1" source="qbdhf5ipK8pvgIjz0etJ-9" target="qbdhf5ipK8pvgIjz0etJ-13">
          <mxGeometry relative="1" as="geometry">
            <Array as="points">
              <mxPoint x="2445" y="591" />
              <mxPoint x="2445" y="766" />
            </Array>
          </mxGeometry>
        </mxCell>
        <mxCell id="qbdhf5ipK8pvgIjz0etJ-43" value="" style="curved=1;startArrow=none;endArrow=block;exitX=1;exitY=0.62;entryX=0.15;entryY=0;rounded=0;" edge="1" parent="1" source="qbdhf5ipK8pvgIjz0etJ-9" target="qbdhf5ipK8pvgIjz0etJ-19">
          <mxGeometry relative="1" as="geometry">
            <Array as="points">
              <mxPoint x="2465" y="591" />
            </Array>
          </mxGeometry>
        </mxCell>
        <mxCell id="qbdhf5ipK8pvgIjz0etJ-44" value="" style="curved=1;startArrow=none;endArrow=block;exitX=0.5;exitY=1;entryX=0.5;entryY=0;rounded=0;" edge="1" parent="1" source="qbdhf5ipK8pvgIjz0etJ-19" target="qbdhf5ipK8pvgIjz0etJ-18">
          <mxGeometry relative="1" as="geometry">
            <Array as="points" />
          </mxGeometry>
        </mxCell>
        <mxCell id="qbdhf5ipK8pvgIjz0etJ-45" value="" style="curved=1;startArrow=none;endArrow=block;exitX=0;exitY=0.97;entryX=1;entryY=0.35;rounded=0;" edge="1" parent="1" source="qbdhf5ipK8pvgIjz0etJ-14" target="qbdhf5ipK8pvgIjz0etJ-9">
          <mxGeometry relative="1" as="geometry">
            <Array as="points">
              <mxPoint x="2218" y="402" />
              <mxPoint x="2218" y="427" />
            </Array>
          </mxGeometry>
        </mxCell>
        <mxCell id="qbdhf5ipK8pvgIjz0etJ-46" value="" style="curved=1;startArrow=none;endArrow=block;exitX=0.5;exitY=1;entryX=1;entryY=0.42;rounded=0;" edge="1" parent="1" source="qbdhf5ipK8pvgIjz0etJ-14" target="qbdhf5ipK8pvgIjz0etJ-6">
          <mxGeometry relative="1" as="geometry">
            <Array as="points">
              <mxPoint x="2485" y="591" />
            </Array>
          </mxGeometry>
        </mxCell>
        <mxCell id="qbdhf5ipK8pvgIjz0etJ-47" value="" style="curved=1;startArrow=none;endArrow=block;exitX=0.5;exitY=1;entryX=0.5;entryY=0;rounded=0;" edge="1" parent="1" source="qbdhf5ipK8pvgIjz0etJ-15" target="qbdhf5ipK8pvgIjz0etJ-16">
          <mxGeometry relative="1" as="geometry">
            <Array as="points" />
          </mxGeometry>
        </mxCell>
        <mxCell id="qbdhf5ipK8pvgIjz0etJ-48" value="" style="curved=1;startArrow=none;endArrow=block;exitX=0.5;exitY=1;entryX=0.5;entryY=0;rounded=0;" edge="1" parent="1" source="qbdhf5ipK8pvgIjz0etJ-17" target="qbdhf5ipK8pvgIjz0etJ-14">
          <mxGeometry relative="1" as="geometry">
            <Array as="points" />
          </mxGeometry>
        </mxCell>
        <mxCell id="qbdhf5ipK8pvgIjz0etJ-49" value="" style="curved=1;startArrow=none;endArrow=block;exitX=0.31;exitY=1;entryX=0;entryY=0.38;rounded=0;" edge="1" parent="1" source="qbdhf5ipK8pvgIjz0etJ-20" target="qbdhf5ipK8pvgIjz0etJ-9">
          <mxGeometry relative="1" as="geometry">
            <Array as="points">
              <mxPoint x="408" y="402" />
              <mxPoint x="731" y="427" />
            </Array>
          </mxGeometry>
        </mxCell>
        <mxCell id="qbdhf5ipK8pvgIjz0etJ-50" value="" style="curved=1;startArrow=none;endArrow=block;exitX=0.53;exitY=1;entryX=0.15;entryY=0;rounded=0;" edge="1" parent="1" source="qbdhf5ipK8pvgIjz0etJ-20" target="qbdhf5ipK8pvgIjz0etJ-6">
          <mxGeometry relative="1" as="geometry">
            <Array as="points">
              <mxPoint x="490" y="402" />
              <mxPoint x="859" y="427" />
              <mxPoint x="859" y="591" />
            </Array>
          </mxGeometry>
        </mxCell>
        <mxCell id="qbdhf5ipK8pvgIjz0etJ-51" value="" style="curved=1;startArrow=none;endArrow=block;exitX=0.58;exitY=1;entryX=0.74;entryY=0;rounded=0;" edge="1" parent="1" source="qbdhf5ipK8pvgIjz0etJ-20" target="qbdhf5ipK8pvgIjz0etJ-4">
          <mxGeometry relative="1" as="geometry">
            <Array as="points">
              <mxPoint x="510" y="402" />
              <mxPoint x="418" y="427" />
            </Array>
          </mxGeometry>
        </mxCell>
        <mxCell id="qbdhf5ipK8pvgIjz0etJ-52" value="" style="curved=1;startArrow=none;endArrow=block;exitX=0.5;exitY=1;entryX=0;entryY=0.31;rounded=0;" edge="1" parent="1" source="qbdhf5ipK8pvgIjz0etJ-21" target="qbdhf5ipK8pvgIjz0etJ-9">
          <mxGeometry relative="1" as="geometry">
            <Array as="points">
              <mxPoint x="1044" y="427" />
            </Array>
          </mxGeometry>
        </mxCell>
        <mxCell id="qbdhf5ipK8pvgIjz0etJ-53" value="" style="curved=1;startArrow=none;endArrow=block;exitX=0.5;exitY=1;entryX=0.3;entryY=0;rounded=0;" edge="1" parent="1" source="qbdhf5ipK8pvgIjz0etJ-22" target="qbdhf5ipK8pvgIjz0etJ-9">
          <mxGeometry relative="1" as="geometry">
            <Array as="points">
              <mxPoint x="1477" y="427" />
            </Array>
          </mxGeometry>
        </mxCell>
        <mxCell id="qbdhf5ipK8pvgIjz0etJ-54" value="" style="curved=1;startArrow=none;endArrow=block;exitX=0;exitY=0.75;entryX=0.47;entryY=0;rounded=0;" edge="1" parent="1" source="qbdhf5ipK8pvgIjz0etJ-2" target="qbdhf5ipK8pvgIjz0etJ-4">
          <mxGeometry relative="1" as="geometry">
            <Array as="points">
              <mxPoint x="315" y="239" />
              <mxPoint x="315" y="427" />
            </Array>
          </mxGeometry>
        </mxCell>
        <mxCell id="qbdhf5ipK8pvgIjz0etJ-55" value="" style="curved=1;startArrow=none;endArrow=block;exitX=0.5;exitY=1;entryX=0.5;entryY=0;rounded=0;" edge="1" parent="1" source="qbdhf5ipK8pvgIjz0etJ-25" target="qbdhf5ipK8pvgIjz0etJ-2">
          <mxGeometry relative="1" as="geometry">
            <Array as="points" />
          </mxGeometry>
        </mxCell>
        <mxCell id="qbdhf5ipK8pvgIjz0etJ-56" value="" style="curved=1;startArrow=none;endArrow=block;exitX=1;exitY=0.68;entryX=0.5;entryY=0;rounded=0;" edge="1" parent="1" source="qbdhf5ipK8pvgIjz0etJ-2" target="qbdhf5ipK8pvgIjz0etJ-23">
          <mxGeometry relative="1" as="geometry">
            <Array as="points">
              <mxPoint x="1764" y="239" />
            </Array>
          </mxGeometry>
        </mxCell>
        <mxCell id="qbdhf5ipK8pvgIjz0etJ-57" value="" style="curved=1;startArrow=none;endArrow=block;exitX=1;exitY=0.64;entryX=0.5;entryY=0;rounded=0;" edge="1" parent="1" source="qbdhf5ipK8pvgIjz0etJ-2" target="qbdhf5ipK8pvgIjz0etJ-24">
          <mxGeometry relative="1" as="geometry">
            <Array as="points">
              <mxPoint x="2051" y="239" />
            </Array>
          </mxGeometry>
        </mxCell>
      </root>
    </mxGraphModel>
  </diagram>
</mxfile>
